<svg width="73" height="73" viewBox="0 0 73 73" fill="none" xmlns="http://www.w3.org/2000/svg">
<g id="emojione:handshake-medium-dark-skin-tone">
<path id="Vector" d="M63.8376 38.075L62.4876 17.7125L53.1501 23.45C48.5376 22.6625 47.3001 22.6625 43.7001 20.8625C41.5626 19.85 38.8626 20.525 37.5126 21.3125C35.4876 19.175 22.3251 22.325 20.8626 23C16.9251 21.875 11.0751 17.2625 11.0751 17.2625L9.1626 40.325L11.7501 41C11.9751 41.7875 12.6501 43.7 12.6501 43.7C10.1751 46.85 13.1001 50.5625 15.9126 49.325C14.6751 52.475 17.9376 55.3999 20.5251 53.375C20.1876 56.2999 23.2251 58.4375 25.4751 56.4125C24.4626 59.9 28.4001 62.4874 30.7626 59.6749C32.4501 60.7999 34.0251 61.7 35.3751 62.15C37.7376 63.1625 40.3251 60.9125 39.8751 58.1C42.5751 61.25 46.6251 58.2125 45.7251 54.725C48.7626 57.0875 52.4751 53.15 50.5626 49.6625C53.9376 51.575 56.8626 46.4 53.6001 43.025L63.8376 38.075Z" fill="#B47D56"/>
<g id="Group">
<path id="Vector_2" d="M16.1376 41.3376C17.8251 42.1251 18.9501 44.7126 17.1501 46.9626L16.3626 47.8626C15.4626 48.9876 14.5626 49.3251 13.6626 49.3251C14.3376 49.6626 15.1251 49.6626 15.9126 49.3251C16.0251 48.9876 16.2501 48.5376 16.5876 48.2001L17.3751 47.3001C17.8251 46.7376 18.3876 46.2876 18.8376 46.0626C19.7376 43.7001 18.1626 41.4501 16.1376 41.3376ZM29.0751 52.4751C30.8751 52.9251 32.2251 55.2876 30.8751 57.8751L30.2001 58.8876C29.5251 60.1251 28.6251 60.6876 27.7251 60.8001C28.9626 61.1376 30.3126 60.6876 31.2126 59.0001L31.8876 57.9876C33.4626 54.8376 31.3251 52.2501 29.0751 52.4751ZM21.0876 51.5751L22.8876 48.7626C22.7751 47.1876 21.4251 45.8376 20.0751 45.7251C21.7626 46.5126 22.8876 49.1001 21.0876 51.3501L20.3001 52.2501C19.4001 53.3751 18.5001 53.7126 17.4876 53.7126C18.3876 54.1626 19.4001 54.0501 20.4126 53.3751C20.5251 52.8126 20.7501 52.1376 21.0876 51.5751ZM25.9251 46.5126C27.7251 47.0751 28.9626 49.5501 27.3876 52.0251L25.2501 55.4001C24.4626 56.6376 23.5626 57.0876 22.6626 57.0876C23.7876 57.4251 25.2501 57.0876 26.2626 55.5126L28.4001 52.1376C30.2001 49.2126 28.1751 46.4001 25.9251 46.5126ZM40.8876 49.3251C41.0001 49.3251 42.3501 49.1001 42.8001 49.1001C41.1126 47.4126 38.4126 48.7626 36.8376 47.8626C37.9626 49.7751 40.3251 49.3251 40.5501 49.3251L43.2501 52.8126C45.5001 55.6251 43.7001 58.8876 41.3376 59.2251C43.8126 60.0126 46.2876 57.4251 45.5001 54.6126C45.3876 54.5001 40.8876 49.3251 40.8876 49.3251ZM43.5876 42.8001C43.5876 42.8001 45.2751 42.4626 46.7376 42.4626C45.0501 41.1126 42.4626 42.3501 40.7751 41.2251C41.4501 42.6876 42.9126 42.6876 43.3626 42.6876L48.5376 48.6501C50.9001 51.3501 49.2126 54.6126 46.8501 55.1751C49.5501 55.9626 52.1376 52.4751 50.4501 49.4376C49.3251 49.1001 43.5876 42.8001 43.5876 42.8001Z" fill="#935E3E"/>
<path id="Vector_3" d="M39.9875 55.7375C38.3 54.3875 35.9375 55.4 34.925 54.725C35.4875 56.3 37.625 55.9625 37.7375 55.9625C39.65 58.8875 37.625 61.925 35.2625 62.15C37.625 63.1625 40.2125 60.9125 39.7625 58.1C39.65 57.9875 38.075 55.9625 38.075 55.9625C38.3 55.85 39.5375 55.7375 39.9875 55.7375ZM62.6 36.1625C62.6 36.1625 60.6875 40.1 53.2625 42.2375C52.25 41 50.1125 38.525 47.6375 36.3875C49.2125 36.05 50 34.8125 51.2375 34.5875C50.7875 34.1375 49.2125 34.3625 47.975 34.8125C45.725 35.6 40.55 32 40.55 32L36.275 32.5625C33.2375 35.4875 26.7125 37.0625 26.375 32.5625C26.15 29.4125 33.0125 27.275 35.15 25.25C37.85 22.6625 40.2125 19.4 44.6 21.65C48.2 23.45 49.6625 23.3375 54.6125 24.2375C56.3 24.575 57.425 25.3625 58.6625 27.05C57.65 24.6875 56.1875 23.675 54.3875 23.3375L62.2625 19.625L62.375 17.7125L53.0375 23C48.7625 22.325 47.1875 22.325 43.7 20.6375C41.45 19.5125 39.65 19.85 38.1875 20.75C35.4875 19.175 33.9125 19.5125 32.9 19.7375C29.75 20.75 24.6875 20.8625 20.1875 22.6625C20.975 22.8875 21.7625 23.1125 22.325 23.1125C26.7125 21.7625 31.325 21.875 33.4625 21.0875C34.1375 20.8625 35.4875 20.8625 36.95 21.65C36.05 22.4375 35.2625 23.3375 34.3625 24.2375C32.225 26.2625 25.7 29.1875 26.15 32.9C26.375 34.7 28.85 39.425 37.0625 34.1375L40.55 33.6875C40.55 33.6875 46.9625 36.725 52.925 43.7C55.2875 46.4 53.825 49.325 51.4625 50C54.5 50.5625 57.0875 46.2875 54.1625 43.3625L61.25 39.5375L62.6 36.1625Z" fill="#935E3E"/>
</g>
<path id="Vector_4" d="M60.5751 18.8375L64.2876 38.075L61.2501 39.425C59.6751 35.2625 57.3126 25.25 57.8751 20.4125L60.5751 18.8375Z" fill="#3B946F"/>
<path id="Vector_5" d="M12.9875 43.25C12.425 41.9 12.0875 40.1 12.0875 40.1L9.27505 38.1875L9.05005 40.325L11.525 41C11.8625 42.125 12.2 43.025 12.65 43.7L12.9875 43.25Z" fill="#935E3E"/>
<path id="Vector_6" d="M7.36255 39.9874L13.4375 18.95L16.25 20.8625C16.7 24.0125 11.525 38.4125 9.61255 40.5499L7.36255 39.9874Z" fill="#3B946F"/>
<path id="Vector_7" d="M60.4625 18.725C59.5625 19.2875 62.825 38.75 64.175 38.1875C68.45 36.275 70.3625 35.7125 70.3625 35.7125V12.5375C70.25 12.5375 67.6625 14.45 60.4625 18.725ZM2.75 10.625V39.3125C2.75 39.3125 4.775 39.65 7.3625 40.2125C8.825 40.55 14.1125 19.4 13.775 19.0625C9.95 16.475 2.75 10.625 2.75 10.625Z" fill="#47B892"/>
</g>
</svg>
