<svg width="73" height="73" viewBox="0 0 73 73" fill="none" xmlns="http://www.w3.org/2000/svg">
<g id="mingcute:target-fill">
<g id="Group">
<path id="Vector" d="M36.5 6.5C39.188 6.5 41.792 6.854 44.27 7.517L37.892 13.892C37.4081 14.3778 36.9814 14.9173 36.62 15.5H36.5C32.3466 15.5 28.2865 16.7316 24.833 19.0391C21.3796 21.3466 18.688 24.6264 17.0985 28.4636C15.5091 32.3009 15.0932 36.5233 15.9035 40.5969C16.7138 44.6705 18.7139 48.4123 21.6508 51.3492C24.5877 54.2861 28.3295 56.2862 32.4031 57.0965C36.4767 57.9068 40.6991 57.4909 44.5364 55.9015C48.3736 54.312 51.6534 51.6204 53.9609 48.167C56.2684 44.7135 57.5 40.6534 57.5 36.5V36.38C58.08 36.02 58.615 35.595 59.105 35.105L65.483 28.73C66.146 31.208 66.5 33.812 66.5 36.5C66.5 53.069 53.069 66.5 36.5 66.5C19.931 66.5 6.5 53.069 6.5 36.5C6.5 19.931 19.931 6.5 36.5 6.5ZM35.258 21.551C35.258 24.104 35.132 26.693 35.27 29.243L33.65 30.863C33.0927 31.4203 32.6507 32.0818 32.3491 32.8099C32.0475 33.538 31.8923 34.3184 31.8923 35.1065C31.8923 35.8946 32.0475 36.675 32.3491 37.4031C32.6507 38.1312 33.0927 38.7927 33.65 39.35C34.2073 39.9073 34.8688 40.3493 35.5969 40.6509C36.325 40.9525 37.1054 41.1077 37.8935 41.1077C38.6816 41.1077 39.462 40.9525 40.1901 40.6509C40.9182 40.3493 41.5797 39.9073 42.137 39.35L43.757 37.73C46.307 37.868 48.893 37.742 51.449 37.742C51.212 40.593 50.1647 43.3168 48.4305 45.5921C46.6963 47.8675 44.3476 49.5994 41.6614 50.5837C38.9752 51.568 36.0635 51.7636 33.2698 51.1474C30.4761 50.5312 27.9169 49.129 25.894 47.106C23.871 45.0831 22.4688 42.5239 21.8526 39.7302C21.2364 36.9365 21.432 34.0248 22.4163 31.3386C23.4006 28.6524 25.1325 26.3037 27.4079 24.5695C29.6832 22.8353 32.407 21.788 35.258 21.551ZM56.012 6.881C56.5596 7.10804 57.0276 7.49221 57.3571 7.98503C57.6865 8.47785 57.8626 9.05721 57.863 9.65V15.14H63.35C63.9433 15.1401 64.5231 15.3161 65.0164 15.6458C65.5096 15.9754 65.894 16.4439 66.121 16.992C66.348 17.5401 66.4075 18.1432 66.2918 18.7251C66.176 19.307 65.8904 19.8414 65.471 20.261L54.86 30.86C54.2975 31.4226 53.5346 31.7388 52.739 31.739H45.5L40.016 37.226C39.4531 37.7889 38.6896 38.1052 37.8935 38.1052C37.0974 38.1052 36.3339 37.7889 35.771 37.226C35.2081 36.6631 34.8918 35.8996 34.8918 35.1035C34.8918 34.3074 35.2081 33.5439 35.771 32.981L41.258 27.5V20.258C41.2577 19.8636 41.3352 19.4729 41.486 19.1085C41.6368 18.744 41.858 18.4129 42.137 18.134L52.742 7.529C53.1615 7.1092 53.6962 6.82328 54.2782 6.70739C54.8603 6.59151 55.4637 6.65089 56.012 6.878" fill="#FB2C36"/>
</g>
</g>
</svg>
