<svg width="73" height="73" viewBox="0 0 73 73" fill="none" xmlns="http://www.w3.org/2000/svg">
<g id="noto:graduation-cap">
<path id="Vector" d="M56.2213 51.9237C56.2213 51.9237 47.7219 59.8999 36.4831 59.8999C25.2444 59.8999 16.7506 51.9237 16.7506 51.9237C16.7506 51.9237 15.17 44.3356 19.2538 31.2349C21.4081 24.3274 52.0644 23.6243 54.4663 29.6656C58.55 39.9199 56.2213 51.9237 56.2213 51.9237Z" fill="#424242"/>
<path id="Vector_2" d="M16.7506 51.9237L19.445 54.0837C19.445 54.0837 19.4225 49.8087 20.7444 45.8206C21.2394 44.33 23.0056 43.7056 24.3331 44.5437L34.6212 50.9956C35.1853 51.3487 35.8362 51.5383 36.5016 51.5432C37.167 51.5482 37.8208 51.3683 38.39 51.0237C43.3062 48.0425 56.1312 40.2406 56.7162 39.7625C56.7162 39.7625 56.7162 38.8006 56.4744 37.5743L16.6044 37.625L16.7506 51.9237Z" fill="#212121"/>
<path id="Vector_3" d="M69.5806 29.7669L37.6306 48.7963C36.9331 49.2125 36.0612 49.2125 35.3581 48.7963L3.41937 29.7669C2.53062 29.2381 2.53062 27.95 3.41937 27.4213L35.3694 8.3919C36.0669 7.97565 36.9387 7.97565 37.6419 8.3919L69.5919 27.4213C70.475 27.95 70.475 29.2381 69.5806 29.7669Z" fill="#424242"/>
<path id="Vector_4" d="M36.5226 47.4012C36.5169 47.4012 36.5057 47.4068 36.5001 47.4068C36.4101 47.4068 36.3201 47.3843 36.2413 47.3337L2.85131 28.085C2.85131 28.085 2.68818 28.3943 2.85131 28.9512C3.02006 29.5081 3.27881 29.6881 3.41943 29.7725L35.3694 48.8018C35.7182 49.01 36.1119 49.1168 36.5057 49.1168H36.5282V47.4012H36.5226Z" fill="#9E9E9E"/>
<path id="Vector_5" d="M36.5 47.4012C36.5056 47.4012 36.5169 47.4068 36.5225 47.4068C36.6125 47.4068 36.7025 47.3843 36.7813 47.3337L70.1713 28.085C70.1713 28.085 70.3344 28.3943 70.1713 28.9512C70.0025 29.5081 69.7438 29.6881 69.6031 29.7725L37.6531 48.8018C37.3044 49.01 36.9106 49.1168 36.5169 49.1168H36.4944V47.4012H36.5Z" fill="#616161"/>
<path id="Vector_6" d="M20.4407 39.9088L20.6207 38.3281C20.6207 38.3281 34.4075 30.83 35.7688 30.0425C37.13 29.255 38.5588 28.3775 39.1944 27.6744C40.3194 26.4369 39.5094 25.6606 39.5094 25.6606C39.5094 25.6606 38.6207 27.1006 36.5 26.8475C35.285 26.7013 33.7044 25.7169 33.44 25.2556C33.1757 24.7944 17.8757 36.4494 17.8757 36.4494L17.7688 38.3225L20.4407 39.9088Z" fill="#424242"/>
<path id="Vector_7" d="M39.5094 25.6662C38.0356 27.725 35.5381 26.825 35.5381 26.825C35.5381 26.825 27.7138 30.5769 27.4213 30.0087C27.1288 29.4406 33.8844 25.9644 33.8844 25.9644C33.8844 25.9644 33.5075 24.5806 33.5469 23.99C33.5469 23.99 21.3294 31.7637 16.745 34.3794C14.3431 35.7519 13.8313 37.0456 13.8369 38.8681C13.8369 39.6669 13.8481 42.26 13.8594 43.8069C13.8594 44.0937 13.7356 44.3637 13.5163 44.5437C13.184 44.8159 12.9164 45.1584 12.7325 45.5465C12.5487 45.9346 12.4533 46.3587 12.4531 46.7881C12.4531 47.6487 12.83 48.4194 13.4263 48.9537C13.7469 49.2406 13.6794 49.8594 13.7075 50.2587C13.7638 51.0237 13.7075 51.3725 13.3925 52.0812C13.0831 52.7731 12.7963 53.4819 12.5994 54.2131C12.4475 54.7756 12.3463 55.355 12.245 55.9287C11.5756 59.7706 11.2719 63.8769 9.5 67.4094C9.46663 67.4754 9.44671 67.5474 9.44139 67.6212C9.43607 67.6949 9.44545 67.769 9.469 67.8392C9.49255 67.9093 9.52979 67.974 9.57857 68.0296C9.62734 68.0853 9.68668 68.1306 9.75313 68.1631C9.88673 68.2305 10.0416 68.2424 10.1839 68.196C10.3261 68.1496 10.4443 68.0488 10.5125 67.9156C11.435 66.0762 11.9131 64.0625 12.3069 62.0656C12.2844 63.8712 12.2731 65.6937 12.2113 67.6625C12.2 68.045 12.1719 68.8156 12.5206 68.9844C13.8313 69.62 13.8313 67.6625 13.8313 67.6625C13.8313 67.6625 13.8481 69.4231 15.6313 69.4231C17.4144 69.4231 17.5438 67.6625 17.5438 67.6625C17.5438 67.6625 17.6731 69.2769 18.59 69.1981C18.9613 69.1644 19.4506 68.9394 19.2763 67.01C19.1019 65.0862 18.6688 58.19 18.4831 56.0075C18.2244 52.9869 17.2344 51.1925 17.0319 50.1237C16.9588 49.7187 16.9531 49.2969 17.2738 49.0325C17.6001 48.7651 17.8642 48.4299 18.0479 48.0501C18.2316 47.6702 18.3303 47.255 18.3373 46.8332C18.3442 46.4114 18.2592 45.9931 18.0882 45.6074C17.9172 45.2218 17.6642 44.878 17.3469 44.6C17.2341 44.5015 17.1458 44.3779 17.0892 44.2393C17.0325 44.1006 17.0091 43.9506 17.0206 43.8012C17.1275 42.3444 17.2456 40.2294 17.3413 39.74C17.7575 37.5406 18.8431 37.1469 19.9569 36.4944C21.0706 35.8362 37.2031 28.5125 38.1425 27.8881C39.8806 26.7237 39.5094 25.6662 39.5094 25.6662Z" fill="#E2A610"/>
<path id="Vector_8" d="M39.5093 25.6662C38.1199 27.6294 35.2343 26.7519 35.2343 26.7519C35.2343 26.7519 27.8599 30.02 28.3493 29.4294C28.8331 28.8387 33.8843 25.9644 33.8843 25.9644C33.8843 25.9644 33.5074 24.5806 33.5468 23.99C33.5468 23.99 21.1156 31.1731 16.2949 34.6269C15.0518 35.5212 13.5106 36.9837 14.7649 38.4406C15.3443 39.11 16.4637 39.2506 17.1781 38.7219C17.6112 38.4069 17.9487 37.9456 18.3312 37.58C18.8037 37.1187 19.3774 36.8262 19.9399 36.4944C21.0537 35.8362 37.1862 28.5125 38.1256 27.8881C39.8806 26.7237 39.5093 25.6662 39.5093 25.6662Z" fill="#FFCA28"/>
<path id="Vector_9" d="M15.1869 52.1712C14.4444 52.1712 13.9437 52.1093 13.4881 52.0024C13.4068 51.9838 13.3349 51.9367 13.2854 51.8696C13.2358 51.8026 13.212 51.72 13.2181 51.6368L13.3644 49.488C13.3812 49.2687 13.5894 49.1168 13.8031 49.1787C14.3094 49.3249 15.3219 49.4712 16.9756 49.1224C17.1781 49.0774 17.3806 49.218 17.4031 49.4262L17.6281 51.5637C17.645 51.738 17.5325 51.9012 17.3637 51.9405C16.5031 52.1374 15.8787 52.1712 15.1869 52.1712Z" fill="#9E740B"/>
<path id="Vector_10" d="M56.2213 51.9237C56.2213 51.9237 57.2169 46.7262 56.8175 41.1969C56.75 40.2631 56.1763 39.4587 55.7319 42.7269C55.4788 44.6 54.9275 50.2081 53.9881 53.7125C55.4225 52.6775 56.2213 51.9237 56.2213 51.9237ZM37.4731 21.1944C37.8838 21.3237 38.2606 21.6387 38.3675 22.0606C38.5081 22.6231 38.1538 23.1856 37.7713 23.6244C37.0231 24.485 35.9938 25.2387 34.8519 25.1994C34.475 25.1881 34.07 25.0644 33.8394 24.7662C33.6763 24.5581 33.62 24.2881 33.6031 24.0237C33.5019 22.0944 35.6844 20.6319 37.4731 21.1944Z" fill="#616161"/>
</g>
</svg>
