<svg width="73" height="73" viewBox="0 0 73 73" fill="none" xmlns="http://www.w3.org/2000/svg">
<g id="noto:brain">
<path id="Vector" d="M35.1106 50.9561C35.1106 50.9561 36.1625 55.4336 41.99 58.7636C45.6631 60.8618 53.3862 63.0386 57.3293 60.1249C61.8181 56.8061 62.7856 53.5211 62.9993 52.3118C63.2131 51.1024 62.5718 47.7668 62.5718 47.7668L55.1862 45.1399C55.1862 45.1399 42.9743 48.1211 42.7606 48.1211C42.5525 48.1268 35.1106 50.9561 35.1106 50.9561Z" fill="#E06767"/>
<path id="Vector_2" d="M62.5943 53.7518C62.7575 53.3299 62.8587 52.9699 62.9318 52.6718C61.6268 52.323 60.1137 51.7605 58.7412 51.1755C58.8537 51.1249 58.9662 51.0743 59.0731 51.018C59.7481 50.6749 60.4118 50.2755 60.89 49.6905C61.4075 49.0605 61.6437 48.2449 61.6156 47.4293L55.1862 45.1399C55.1862 45.1399 42.9743 48.1211 42.7606 48.1211C42.5468 48.1211 35.1106 50.9505 35.105 50.9561C35.0093 50.9899 35.7968 52.6436 35.8475 52.728C36.5618 54.0611 38.2043 55.9174 39.3293 56.9243C39.3293 56.9243 38.8118 55.7318 39.7906 55.2874C40.2237 55.0905 40.7468 55.1861 41.1912 55.3605C42.305 55.8049 43.7 57.5149 47.1875 59.3486C49.5556 60.5974 51.9912 61.5536 52.7787 61.5199C53.8306 61.4749 55.7375 60.963 55.7375 60.963C55.7375 60.963 53.3075 60.7324 49.4037 58.9155C48.2225 58.3643 43.8518 56.2155 43.4356 55.0174C43.3175 54.6799 42.8956 54.0836 43.6606 53.7461C44.8306 53.223 48.02 55.9736 50.7593 57.2336C54.0218 58.7299 57.5768 59.928 57.5768 59.928C57.9593 59.6355 58.3193 59.343 58.6568 59.0505C56.84 58.5836 55.0625 57.9424 53.3468 57.1943C51.6368 56.4518 49.9606 55.4899 48.4137 54.4324C47.4293 53.7574 46.7487 52.6211 47.8062 52.4749C49.5387 52.233 51.7775 53.8811 54.0218 55.0455C56.0468 56.0974 58.4768 56.5811 60.755 56.868C61.0475 56.5024 61.5256 55.8049 61.5256 55.8049C61.5256 55.8049 60.665 55.6586 58.1225 55.0961C57.0087 54.8486 55.9287 54.528 54.9387 53.9711C54.68 53.8249 53.7743 52.8968 55.0118 52.4693C56.2493 52.0418 57.425 52.8911 59.2925 53.3243C61.1656 53.7686 62.5775 53.7911 62.5943 53.7518Z" fill="#B05353"/>
<path id="Vector_3" d="M66.8751 30.4813C66.8751 30.4813 66.7345 25.925 64.2876 21.8919C62.1782 18.4157 59.1688 18.0613 59.1688 18.0613C59.1688 18.0613 58.5726 15.8732 56.4801 14.1969C54.3876 12.5207 50.0844 11.12 50.0844 11.12C41.467 7.23879 36.0951 10.4169 36.0951 10.4169C36.0951 10.4169 23.3151 7.37941 13.0832 16.0588C13.0832 16.0588 7.91945 18.4888 5.81007 23.0788C4.6457 25.6213 5.14632 29.7669 5.14632 29.7669C1.5632 33.9294 2.54757 40.5219 6.56945 43.8238C8.48757 45.3932 10.8557 46.4338 13.3251 46.6982C14.2926 46.7994 14.7819 46.5688 15.1869 47.5532C15.7832 49.0044 16.2501 50.495 17.4482 51.5357C18.6688 52.5932 20.0919 53.4144 21.6051 53.9769C24.5413 55.0625 27.8601 55.1807 30.8244 54.1175C31.8088 53.7632 34.9644 53.7294 34.9644 53.7294C34.9644 53.7294 36.6351 55.1075 42.5638 54.8882C48.4926 54.6688 50.9957 52.1094 52.3513 51.6313C53.392 51.2657 54.6688 50.4613 55.8051 50.6694C56.452 50.7875 57.0313 51.1194 57.622 51.4007C59.2757 52.1938 61.132 52.6269 62.9544 52.4582C69.8451 51.8225 70.5707 43.8857 69.8901 38.4294C69.2038 32.9225 66.8751 30.4813 66.8751 30.4813Z" fill="#FFB3B3"/>
<path id="Vector_4" d="M15.98 41.2531C15.8394 41.5737 14.4332 44.645 13.2519 45.14C11.21 46.0006 8.04878 43.9531 6.83941 43.3906C6.60316 43.2781 6.44566 43.5593 6.44566 43.5593C6.24878 43.8125 6.76066 44.3356 7.01941 44.5212C8.02066 45.2412 10.4225 46.8725 12.2057 47.3168C14.5063 47.8906 16.2332 47.3168 16.2332 47.3168C16.2332 47.3168 16.8632 42.71 16.9138 42.5018C16.9644 42.2937 16.9138 40.46 16.9138 40.46L15.98 41.2531Z" fill="#EA6363"/>
<path id="Vector_5" d="M36.0782 54.2526C36.0782 54.2526 34.9195 54.0726 33.142 54.1007C31.3645 54.1289 28.8613 54.6407 28.8613 54.6407C28.8613 54.6407 30.6276 53.8364 31.4151 53.1332C32.2026 52.4245 32.3601 50.7032 32.2307 49.6795C32.0957 48.6332 31.7413 48.1045 29.0638 47.5476L37.0851 47.1032C34.3963 48.892 33.907 52.5764 36.0782 54.2526ZM60.3613 37.327C58.9663 37.5126 57.6107 37.2482 56.407 36.5339C55.8838 36.2189 55.8276 35.4764 56.2888 35.077C56.5982 34.8126 57.0426 34.7957 57.3857 35.0207C59.332 36.2976 61.312 35.4595 62.3695 34.8014C65.0695 33.1195 66.4082 30.1382 66.2282 27.0107C66.7682 27.967 67.162 29.0245 67.2576 30.1157C67.4995 32.7651 65.5926 34.8295 63.4607 36.1626C62.4426 36.8039 61.3907 37.192 60.3613 37.327Z" fill="#F07371"/>
<path id="Vector_6" d="M66.3912 39.965C65.7837 39.965 65.1256 39.8356 64.5012 39.4531C63.8599 39.0593 63.5 38.5306 63.1793 37.8781C62.9149 37.3437 62.5437 37.0118 61.8631 37.0625C61.3849 37.1018 60.9237 37.3718 60.4456 37.3043C61.0812 36.1793 62.0993 35.2793 63.2974 34.79C63.8487 34.565 64.4674 34.4243 65.0299 34.5987C65.0918 34.9925 64.8274 35.3581 64.6756 35.7293C64.4112 36.3875 64.5181 37.175 64.9456 37.7375C65.2381 38.12 65.7949 38.5306 66.3068 38.4968C66.6443 38.4743 66.8806 38.1875 67.2124 38.1593C68.2418 38.0862 68.5006 39.5937 67.4881 39.83C67.1618 39.9087 66.7906 39.965 66.3912 39.965ZM56.4912 19.1075C56.0806 19.1581 55.6643 19.1131 55.4506 18.7531C55.1749 18.2862 55.4056 17.7012 55.9174 17.5212C57.3293 17.0262 58.9156 17.1162 60.2937 17.6675C61.4975 18.1512 62.2231 18.9725 62.7012 19.5293C63.1793 20.0862 63.5056 21.1887 63.5056 21.1887C62.3074 20.1481 61.6268 18.5112 56.4912 19.1075ZM51.1024 18.0218C49.8874 17.9712 51.0687 18.0218 51.0574 18.0218C49.1337 18.0218 46.8331 17.3581 46.5237 15.1643C45.9668 11.1706 51.8618 12.7231 54.0218 13.0212C54.0218 13.0212 52.3175 11.2718 50.0843 11.12C49.0437 11.0525 47.9693 11.0806 46.9568 11.3506C45.8431 11.6487 45.2806 12.4868 44.2681 12.9031C43.5031 13.2125 42.6312 13.0943 41.8437 12.8581C41.1181 12.6387 38.7612 11.3731 38.6937 12.9481C38.6768 13.3812 38.9862 13.7525 39.4081 13.8143C41.1181 14.0562 43.4806 14.8212 44.3581 16.4525C44.7631 17.2006 44.8587 18.1062 44.6225 18.9218C44.5099 19.3212 44.3468 19.8331 44.6787 20.0862C44.9318 20.2831 45.3199 20.1537 45.5506 19.9287C45.7812 19.7037 45.9274 19.4 46.1581 19.175C46.8781 18.4662 47.5306 18.9725 48.2956 19.2425C49.1787 19.5575 50.1124 19.7093 51.0518 19.7093C51.0743 19.7093 49.4037 19.5462 51.1137 19.7093C52.8181 19.8668 52.3118 18.0725 51.1024 18.0218ZM24.0631 16.1881C23.1293 15.3443 22.6849 12.0593 25.3681 10.3662C25.3681 10.3662 23.9056 10.4168 22.6849 11.3731C21.6443 12.1887 21.4362 13.6006 21.6837 15.0912C21.7456 15.4737 21.4474 15.8225 21.0593 15.8C19.6643 15.7268 18.275 15.98 17.0768 16.5312C16.6212 16.745 16.4637 17.3187 16.7337 17.7462C16.845 17.919 17.0156 18.0453 17.2135 18.1012C17.4113 18.1571 17.6227 18.1389 17.8081 18.05C19.1525 17.4312 21.11 17.0993 22.6793 17.4931C24.2712 17.8925 25.3906 18.3537 26.6393 20.5193C26.8531 20.885 27.3143 21.0143 27.6631 20.7781C27.9331 20.5925 28.0456 20.2437 27.9331 19.94C26.8643 16.9925 25.3231 17.3243 24.0631 16.1881ZM27.545 26.3187C27.5148 26.211 27.4636 26.1105 27.3941 26.0228C27.3247 25.9352 27.2385 25.8623 27.1406 25.8084C27.0426 25.7544 26.9349 25.7205 26.8238 25.7087C26.7126 25.6968 26.6002 25.7072 26.4931 25.7393C25.1431 26.1443 23.1912 26.0262 22.3193 25.1487C21.155 22.4543 20.2718 21.9762 18.86 21.4981C18.2975 21.3068 17.735 21.7906 17.7912 22.3756C17.825 22.7075 18.0443 22.9887 18.365 23.0843C19.3662 23.3825 20.3731 24.7268 20.8906 26.0993C21.3631 27.3425 21.4193 28.9793 20.3506 30.1493C20.075 30.4531 20.0187 30.8918 20.2606 31.2237L20.2718 31.2406C20.5812 31.6681 21.1999 31.7018 21.5599 31.3137C21.9424 30.8975 22.3418 30.3575 22.5106 29.8118C22.6849 29.2325 22.6343 28.715 23.135 28.2537C23.6918 27.7362 24.2206 27.8431 24.8899 27.8431C25.5762 27.8431 26.3131 27.5956 26.9599 27.365C27.3987 27.2243 27.68 26.7575 27.545 26.3187ZM10.2987 33.9462C10.1074 33.9462 9.92182 33.9406 9.72495 33.9237C7.12057 33.6987 5.7537 31.8256 5.13495 29.7725C4.5162 27.7193 5.03932 25.4862 5.03932 25.4862C5.82682 31.5612 8.9937 32.1631 9.8712 32.2418C11.5306 32.3881 13.1168 31.6681 13.5499 30.5712C14.2362 28.8387 12.1324 27.14 11.1031 26.0881C10.4224 25.3906 10.1693 24.2037 10.3493 23.2643C10.4393 22.7806 10.6531 22.3081 11.0524 21.9987C11.4462 21.695 12.4362 21.4193 12.3012 22.2856C12.2618 22.5556 12.0874 22.7806 11.9806 23.0281C11.2099 24.7831 13.9493 26.4087 14.6974 27.7081C15.3106 28.76 15.5806 30.0312 15.1193 31.19C14.4668 32.8437 12.4924 33.9462 10.2987 33.9462Z" fill="#F07371"/>
<path id="Vector_7" d="M9.69695 33.4962C10.1526 33.5524 10.6195 33.4737 11.0301 33.2712C11.4238 33.0799 11.7782 32.7762 12.2113 32.7424C12.4195 32.7312 12.6782 32.8549 12.6445 33.0574C12.6332 33.1306 13.1113 33.2656 13.0495 33.3049C11.9301 34.0024 9.09508 34.6943 11.0526 39.7174C11.2101 40.1168 11.0863 40.5668 10.7207 40.7862C10.2932 41.0449 9.72508 40.8762 9.52258 40.4206C8.9882 39.2449 8.72945 37.9456 8.74633 36.6518C8.7632 35.3918 8.89258 34.2893 8.04883 33.2374C7.95883 33.1306 7.8632 32.9787 7.93633 32.8606C7.98133 32.7874 8.07133 32.7593 8.1557 32.7368C8.50445 32.6468 8.8757 32.5512 9.23008 32.6243C9.38758 32.6581 11.1482 33.6312 11.1651 33.5974M59.8776 41.6187C58.7132 41.4781 57.5151 41.5624 56.4126 41.9787C55.4788 42.3331 54.7813 43.0474 53.707 42.8112C53.0657 42.6706 52.4976 42.2599 52.0982 41.7368C51.2545 40.6399 51.367 39.4868 51.682 38.2381C51.997 37.0006 51.9632 35.5662 51.4063 34.4018C51.2601 34.0924 51.0126 33.8168 50.692 33.7043C50.3657 33.5918 49.9663 33.6874 49.7751 33.9743C49.5838 34.2668 49.657 34.6549 49.7245 34.9981C49.9438 36.0499 50.2251 37.1862 49.9101 38.2156C49.612 39.1943 49.2013 40.0718 48.4982 40.8256C47.1651 42.2599 45.2301 42.9181 43.5595 42.4962C42.3276 42.1868 41.332 41.3262 40.6626 40.0099C40.4263 38.9806 40.1788 37.6418 38.902 37.4956C38.6432 37.4674 38.362 37.5068 38.1651 37.6699C37.9682 37.8387 37.8782 38.1087 37.8782 38.3674C37.8782 39.0143 38.497 39.4981 38.6095 40.1337C38.9638 42.0799 37.6701 44.3074 35.707 45.3874C34.1882 46.2256 30.0201 46.6981 26.2851 43.5649C26.1276 43.4299 26.1276 43.1712 25.9757 43.0306C25.8745 42.9406 25.7451 42.8843 25.6157 42.8618C25.0588 42.7549 24.4795 43.2837 24.5301 43.8462C24.5751 44.3581 24.997 44.7518 25.3738 45.1006C26.3526 46.0118 25.9138 46.3774 25.7451 46.8668C25.7057 46.9906 25.6326 47.1031 25.6213 47.2324C25.5876 47.5924 26.1388 47.4743 26.4988 47.4462C26.8588 47.4181 27.1851 47.2212 27.5338 47.1199C27.9726 46.9962 29.9807 47.7331 30.3745 47.8174C31.5163 48.0649 31.9101 48.1774 32.8945 48.1774C34.1263 48.1774 35.1726 48.8131 36.0726 47.9693C37.3551 46.7712 38.3507 45.9893 39.487 45.6012C40.0495 45.4099 40.7245 45.3143 41.197 45.6799C41.5345 45.9387 41.6863 46.3718 41.8045 46.7768C42.0463 47.6093 42.2263 48.4587 42.5807 49.2518C42.9351 50.0393 43.4976 50.7762 44.2851 51.1306C44.5326 51.2431 44.8138 51.3162 45.0838 51.2543C45.3538 51.1924 45.5901 50.9618 45.5957 50.6918C45.6013 50.5062 45.5057 50.3374 45.4045 50.1856C45.0163 49.5668 44.5551 48.9931 44.212 48.3518C43.8688 47.7106 43.6438 46.9624 43.7845 46.2481C44.0432 44.9262 45.5732 44.5549 46.6701 44.2231C47.722 43.9024 48.7738 43.3006 49.9045 43.3624C50.6132 43.4018 52.1151 44.2287 52.5651 44.7799C52.6551 44.8924 52.6945 45.0331 52.717 45.1793C52.9082 46.3662 52.0363 47.4349 51.2095 48.3012C51.0632 48.4531 50.9113 48.6837 51.0351 48.8581C51.0801 48.9199 51.1476 48.9537 51.2151 48.9762C51.8113 49.2068 52.5088 49.0043 53.0151 48.6162C54.1288 47.7724 54.517 46.3268 55.4676 45.3256C56.2495 44.5099 57.3013 43.9756 58.3645 43.6268C62.167 42.3781 62.3638 45.3706 63.0445 47.0468C63.7251 48.7231 64.732 47.5643 64.7432 47.1031C64.7826 44.9149 63.382 42.0349 59.8776 41.6187Z" fill="#F07371"/>
<path id="Vector_8" d="M24.2655 50.5005C23.6862 50.4668 23.3037 49.8649 23.5399 49.3305C23.9168 48.4755 24.6255 47.6261 25.5424 46.9736C26.9374 45.9836 28.3324 45.8036 29.733 46.203L30.0199 47.6318C29.1143 47.373 27.4943 47.6599 26.5212 48.3518C25.818 48.8524 25.3343 49.4655 25.098 49.9774C24.9462 50.3093 24.6255 50.523 24.2655 50.5005Z" fill="#F07371"/>
<path id="Vector_9" d="M60.6931 24.575C60.5863 23.8606 60.0294 23.1969 59.3094 23.1744C58.955 23.1631 58.5613 23.3487 58.4656 23.6919C58.4207 23.8437 58.4431 24.0125 58.4488 24.17C58.4938 25.34 57.5544 26.4706 56.3956 26.6337C55.085 26.8194 54.1175 26.0094 53.1275 25.3344C52.1825 24.6931 51.0013 24.26 49.91 23.9506C47.0019 23.135 44.4988 23.6806 42.5919 26.0825C41.8831 26.9769 41.2081 27.9556 40.2125 28.5069C38.6488 29.3731 35.3469 29.435 34.3738 27.7362C33.0969 25.5144 33.0519 18.6856 37.1469 19.4619C38.4125 19.7037 39.3519 20.8006 39.4419 21.6162C39.4981 22.1337 39.1775 22.5837 38.7669 22.9325C38.6156 23.0623 38.5155 23.2417 38.4846 23.4386C38.4537 23.6355 38.4939 23.837 38.5981 24.0069C38.8681 24.4512 39.4756 24.5469 39.8694 24.215C41.0225 23.225 41.2025 22.1844 41.1181 21.4306C40.8538 19.0287 38.1481 17.6731 35.9994 17.6112C35.5269 17.5944 34.9813 17.4425 34.8013 16.9981C34.7225 16.8069 34.7338 16.5987 34.7169 16.3962C34.6044 14.9619 33.1363 13.4037 31.9888 12.6612C31.5669 12.3856 30.9988 12.5656 30.7794 13.0156C30.5938 13.4037 30.74 13.8594 31.1 14.0956C32.1913 14.8156 32.855 15.8619 33.0744 17.2119C33.3219 18.7644 32.9844 20.3506 32.3319 21.7625C32.0056 22.4712 31.6063 23.1575 31.1394 23.7875C30.74 24.3331 30.1719 24.6987 29.9131 25.3512C29.885 25.4244 29.8569 25.5031 29.8794 25.5763C29.9188 25.7169 30.0931 25.7562 30.2394 25.7619C30.6556 25.7787 31.0719 25.6887 31.4431 25.5144C31.2294 26.3412 31.7806 27.1456 32.2363 27.8656C32.6919 28.5856 33.0575 29.5644 32.54 30.245C32.5175 30.2731 32.4894 30.3013 32.4669 30.335C31.3588 30.8019 30.29 31.4375 29.4575 32.315C28.0231 33.8337 26.96 35.2006 24.8619 35.8756C23.0056 36.4775 20.9413 36.4044 19.1356 35.6787C18.7869 35.5381 18.4325 35.375 18.0556 35.3862C17.6788 35.3975 17.2794 35.6619 17.2681 36.0387C17.2625 36.23 17.3581 36.4044 17.4425 36.5787C18.3988 38.5194 16.6438 39.7794 15.8956 41.4669C15.1925 43.0419 14.8325 44.7687 14.8325 46.4956C14.8325 48.38 15.4794 49.7525 17.8138 52.1488C18.8713 53.2287 20.255 53.87 21.4194 54.2469C21.785 54.365 22.0156 53.8644 21.6894 53.6562C19.2875 52.1262 18.9106 50.7706 18.1794 49.3756C16.4244 46.0175 18.3425 40.8987 21.6444 38.3C22.9213 37.2987 24.7325 37.3775 26.2738 37.9062C27.9275 38.4744 28.9063 39.6894 30.1494 40.82C30.4869 41.1294 30.92 41.4613 31.3531 41.3263C31.7469 41.2081 31.9438 40.7412 31.8988 40.3362C31.8538 39.9312 31.6231 39.5712 31.4038 39.2281C31.1619 38.8512 30.92 38.4744 30.6725 38.0975C30.3519 37.6025 30.02 37.085 29.9188 36.5C29.8063 35.8644 30.3688 33.665 35.7125 32.3037C36.6181 32.0731 37.5406 32.1744 38.4519 32.4331C39.6781 32.7819 40.5556 33.6819 41.585 34.385C41.8719 34.5819 42.1869 34.79 42.5356 34.8012C42.9744 34.8181 43.4019 34.4862 43.4919 34.0531C43.6156 33.4569 43.1656 32.9225 42.8675 32.3937C41.8775 30.65 43.0306 28.3212 44.4875 27.2075C45.7925 26.2175 47.5081 25.8519 49.1338 26.0206C51.6088 26.2737 54.05 27.9275 54.6181 30.3463C54.7475 30.8919 54.905 31.595 55.4619 31.6681C56.0806 31.7525 56.4125 30.9256 56.3506 30.3012C56.2888 29.6769 56.0863 28.9737 56.4744 28.4788C56.6544 28.2537 56.9244 28.1244 57.1888 28.0063C57.9481 27.6744 58.7413 27.3987 59.4219 26.9206C60.1025 26.4481 60.6706 25.7225 60.7213 24.8956C60.7156 24.8 60.71 24.6875 60.6931 24.575Z" fill="#EA6363"/>
<path id="Vector_10" d="M30.2337 25.7563C30.6499 25.7731 31.0662 25.6831 31.4374 25.5088C31.2237 26.3356 31.7749 27.14 32.2305 27.86C32.5624 28.3888 33.0237 29.3281 32.523 30.29C32.523 30.29 33.2768 29.8681 34.4974 29.5138C35.718 29.1594 36.9105 29.0806 36.9105 29.0806C36.0443 28.9006 34.7618 28.4113 34.368 27.7306C33.0912 25.5088 33.0462 18.68 37.1412 19.4563C38.4068 19.6981 39.3462 20.795 39.4362 21.6106C39.4924 22.1281 39.1718 22.5781 38.7612 22.9269C38.6099 23.0567 38.5098 23.2361 38.4789 23.433C38.4479 23.6299 38.4882 23.8314 38.5924 24.0013C38.8624 24.4456 39.4699 24.5413 39.8637 24.2094C41.0168 23.2194 41.1968 22.1788 41.1124 21.425C40.848 19.0231 38.1424 17.6675 35.9937 17.6056C35.5212 17.5888 34.9755 17.4369 34.7955 16.9925C34.7168 16.8013 34.728 16.5931 34.7112 16.3906C34.5987 14.9563 33.1305 13.3981 31.983 12.6556C31.5612 12.38 30.993 12.56 30.7737 13.01C30.588 13.3981 30.7343 13.8538 31.0943 14.09C32.1855 14.81 32.8493 15.8563 33.0687 17.2063C33.3162 18.7588 32.9787 20.345 32.3262 21.7569C31.9999 22.4656 31.6005 23.1519 31.1337 23.7819C30.7343 24.3275 30.1662 24.6931 29.9074 25.3456C29.8793 25.4188 29.8512 25.4975 29.8737 25.5706C29.913 25.7113 30.0874 25.7506 30.2337 25.7563Z" fill="#F07371"/>
</g>
</svg>
