<svg width="54" height="54" viewBox="0 0 54 54" fill="none" xmlns="http://www.w3.org/2000/svg">
<path d="M8.99961 3.59998C7.56744 3.59998 6.19393 4.1689 5.18123 5.1816C4.16854 6.1943 3.59961 7.56781 3.59961 8.99998V36C3.59961 39.8191 5.11675 43.4818 7.81727 46.1823C10.5178 48.8828 14.1805 50.4 17.9996 50.4V46.8C15.1353 46.8 12.3882 45.6621 10.3629 43.6367C8.33746 41.6113 7.19961 38.8643 7.19961 36V25.2H19.7996C21.2318 25.2 22.6053 24.631 23.618 23.6184C24.6307 22.6057 25.1996 21.2321 25.1996 19.8V8.99998C25.1996 7.56781 24.6307 6.1943 23.618 5.1816C22.6053 4.1689 21.2318 3.59998 19.7996 3.59998H8.99961ZM34.1996 3.59998C32.7674 3.59998 31.3939 4.1689 30.3812 5.1816C29.3685 6.1943 28.7996 7.56781 28.7996 8.99998V36C28.7996 39.8191 30.3167 43.4818 33.0173 46.1823C35.7178 48.8828 39.3805 50.4 43.1996 50.4V46.8C40.3353 46.8 37.5882 45.6621 35.5629 43.6367C33.5375 41.6113 32.3996 38.8643 32.3996 36V25.2H44.9996C46.4318 25.2 47.8053 24.631 48.818 23.6184C49.8307 22.6057 50.3996 21.2321 50.3996 19.8V8.99998C50.3996 7.56781 49.8307 6.1943 48.818 5.1816C47.8053 4.1689 46.4318 3.59998 44.9996 3.59998H34.1996Z" fill="#364153"/>
</svg>
