<svg width="73" height="73" viewBox="0 0 73 73" fill="none" xmlns="http://www.w3.org/2000/svg">
<g id="fluent-emoji-flat:hotel">
<g id="Group">
<path id="Vector" d="M47.75 18.536C47.7536 17.0559 47.4652 15.5897 46.9016 14.2212C46.3379 12.8526 45.5099 11.6086 44.4651 10.5604C43.4202 9.51217 42.1788 8.68024 40.8121 8.1122C39.4454 7.54417 37.9801 7.25118 36.5 7.25C30.29 7.25 25.25 12.308 25.25 18.536V18.5H7.25V68H65.75V18.5H47.75V18.536Z" fill="#FFDEA7"/>
<path id="Vector_2" d="M25.25 18.5V68H23V18.5H25.25ZM50 18.5H47.75V68H50V18.5Z" fill="#F3AD61"/>
<path id="Vector_3" d="M45.5 45.5H27.5V63.5H45.5V45.5Z" fill="#F3C07B"/>
<path id="Vector_4" d="M14 48.4385V53.8002C14 54.1827 13.685 54.5 13.28 54.5H10.1975C9.815 54.5 9.5 54.185 9.5 53.8025V48.4385C9.5 48.056 9.815 47.741 10.1975 47.741H13.3025C13.685 47.741 14 48.056 14 48.4385ZM20.75 48.4385V53.8002C20.75 54.1827 20.435 54.5 20.03 54.5H16.9475C16.565 54.5 16.25 54.185 16.25 53.8025V48.4385C16.25 48.056 16.565 47.741 16.9475 47.741H20.0525C20.435 47.741 20.75 48.056 20.75 48.4385ZM14 37.1705V42.5345C14 42.917 13.685 43.232 13.28 43.232H10.1975C9.815 43.232 9.5 42.917 9.5 42.5345V37.1705C9.5 36.788 9.815 36.473 10.1975 36.473H13.3025C13.685 36.473 14 36.788 14 37.1705ZM20.75 37.1705V42.5345C20.75 42.917 20.435 43.232 20.03 43.232H16.9475C16.565 43.232 16.25 42.917 16.25 42.5345V37.1705C16.25 36.788 16.565 36.473 16.9475 36.473H20.0525C20.435 36.473 20.75 36.788 20.75 37.1705ZM14 25.9475V31.3115C14 31.694 13.685 32.009 13.28 32.009H10.1975C9.815 32.009 9.5 31.694 9.5 31.3115V25.9475C9.5 25.565 9.815 25.25 10.1975 25.25H13.3025C13.685 25.25 14 25.565 14 25.9475ZM20.75 25.9475V31.3115C20.75 31.694 20.435 32.009 20.03 32.009H16.9475C16.565 32.009 16.25 31.694 16.25 31.3115V25.9475C16.25 25.565 16.565 25.25 16.9475 25.25H20.0525C20.435 25.25 20.75 25.565 20.75 25.9475ZM56.7365 48.4385V53.8002C56.7365 54.1827 56.4215 54.5 56.039 54.5H52.9475C52.8557 54.5003 52.7648 54.4825 52.6799 54.4476C52.595 54.4126 52.5178 54.3613 52.4528 54.2965C52.3878 54.2317 52.3363 54.1547 52.3011 54.0699C52.2659 53.9852 52.2477 53.8943 52.2477 53.8025V48.4385C52.2477 48.056 52.5628 47.741 52.9453 47.741H56.0345C56.417 47.741 56.7365 48.056 56.7365 48.4385ZM63.5 48.4385V53.8002C63.5 54.1827 63.185 54.5 62.8025 54.5H59.7132C59.6215 54.5003 59.5305 54.4825 59.4456 54.4476C59.3608 54.4126 59.2836 54.3613 59.2186 54.2965C59.1536 54.2317 59.102 54.1547 59.0668 54.0699C59.0316 53.9852 59.0135 53.8943 59.0135 53.8025V48.4385C59.0135 48.056 59.3285 47.741 59.711 47.741H62.8002C63.1827 47.741 63.5 48.056 63.5 48.4385ZM56.7365 37.1705V42.5345C56.7365 42.917 56.4215 43.232 56.039 43.232H52.9475C52.8557 43.2323 52.7648 43.2145 52.6799 43.1796C52.595 43.1446 52.5178 43.0933 52.4528 43.0285C52.3878 42.9637 52.3363 42.8867 52.3011 42.8019C52.2659 42.7172 52.2477 42.6263 52.2477 42.5345V37.1705C52.2477 36.788 52.5628 36.473 52.9453 36.473H56.0345C56.417 36.473 56.7365 36.788 56.7365 37.1705ZM63.5 37.1705V42.5345C63.5 42.917 63.185 43.232 62.8025 43.232H59.7132C59.6215 43.2323 59.5305 43.2145 59.4456 43.1796C59.3608 43.1446 59.2836 43.0933 59.2186 43.0285C59.1536 42.9637 59.102 42.8867 59.0668 42.8019C59.0316 42.7172 59.0135 42.6263 59.0135 42.5345V37.1705C59.0135 36.788 59.3285 36.473 59.711 36.473H62.8002C63.1827 36.473 63.5 36.788 63.5 37.1705ZM56.7365 25.9475V31.3115C56.7365 31.694 56.4215 32.009 56.039 32.009H52.9475C52.8557 32.0093 52.7648 31.9915 52.6799 31.9566C52.595 31.9216 52.5178 31.8703 52.4528 31.8055C52.3878 31.7407 52.3363 31.6637 52.3011 31.5789C52.2659 31.4942 52.2477 31.4033 52.2477 31.3115V25.9475C52.2477 25.565 52.5628 25.25 52.9453 25.25H56.0345C56.417 25.25 56.7365 25.565 56.7365 25.9475ZM63.5 25.9475V31.3115C63.5 31.694 63.185 32.009 62.8025 32.009H59.7132C59.6215 32.0093 59.5305 31.9915 59.4456 31.9566C59.3608 31.9216 59.2836 31.8703 59.2186 31.8055C59.1536 31.7407 59.102 31.6637 59.0668 31.5789C59.0316 31.4942 59.0135 31.4033 59.0135 31.3115V25.9475C59.0135 25.565 59.3285 25.25 59.711 25.25H62.8002C63.1827 25.25 63.5 25.565 63.5 25.9475ZM34.25 35.8025V30.4475C34.25 30.065 33.935 29.75 33.548 29.75H30.452C30.2668 29.7506 30.0892 29.8241 29.9578 29.9547C29.8264 30.0852 29.7518 30.2623 29.75 30.4475V35.8025C29.75 36.185 30.065 36.5 30.452 36.5H33.548C33.9327 36.5 34.25 36.185 34.25 35.8025ZM43.25 30.4475V35.8025C43.25 36.185 42.935 36.5 42.548 36.5H39.452C39.36 36.5006 39.2688 36.483 39.1837 36.4482C39.0986 36.4134 39.0211 36.3621 38.9559 36.2973C38.8906 36.2325 38.8389 36.1554 38.8035 36.0705C38.7682 35.9855 38.75 35.8945 38.75 35.8025V30.4475C38.75 30.065 39.065 29.75 39.452 29.75H42.548C42.9328 29.75 43.25 30.065 43.25 30.4475ZM34.5583 61.25H30.5667C30.4583 61.2494 30.3511 61.2274 30.2512 61.1851C30.1514 61.1429 30.0609 61.0813 29.9849 61.0039C29.909 60.9265 29.8492 60.8348 29.8088 60.7342C29.7685 60.6335 29.7485 60.5259 29.75 60.4175V46.3325C29.75 45.8825 30.1033 45.5 30.5667 45.5H34.5583C34.9993 45.5 35.375 45.86 35.375 46.3325V60.4175C35.375 60.89 34.9993 61.25 34.5583 61.25ZM38.4418 61.25H42.4332C42.8742 61.25 43.25 60.89 43.25 60.4175V46.3325C43.25 45.86 42.8742 45.5 42.4332 45.5H38.4418C38.3333 45.5006 38.2261 45.5226 38.1262 45.5649C38.0264 45.6071 37.9359 45.6687 37.8599 45.7461C37.784 45.8235 37.7242 45.9152 37.6838 46.0158C37.6435 46.1164 37.6235 46.2241 37.625 46.3325V60.4175C37.625 60.89 38.0008 61.25 38.4418 61.25Z" fill="#83CBFF"/>
<path id="Vector_5" d="M48.0875 11.795H63.14C65.2122 11.795 66.9605 13.2823 67.6625 15.3703C67.9775 16.3108 68.1012 17.2377 67.3137 17.9892C66.94 18.3438 66.4451 18.5425 65.93 18.545H47.66L47.6465 18.5045C47.627 18.4625 47.6165 18.416 47.615 18.365C47.615 17.6675 47.5475 16.97 47.4125 16.295C47.0975 14.63 46.3775 13.1225 45.41 11.795C44.3823 10.3895 43.0381 9.24574 41.4863 8.45615C39.9345 7.66657 38.2186 7.25337 36.4775 7.25C32.81 7.25 29.57 9.05 27.545 11.795C26.5775 13.1225 25.8575 14.63 25.5425 16.295C25.4075 16.97 25.34 17.6675 25.34 18.365C25.3388 18.3962 25.3312 18.4269 25.3175 18.455C25.304 18.482 25.2965 18.512 25.295 18.545H7.02498C6.73265 18.5453 6.44379 18.4816 6.17869 18.3584C5.91359 18.2352 5.67869 18.0554 5.49048 17.8317C4.90548 17.1433 4.97973 16.3872 5.21373 15.5728C5.83923 13.379 7.63023 11.795 9.76998 11.795H24.8225C25.9878 9.73532 27.6783 8.02134 29.7218 6.8277C31.7652 5.63406 34.0885 5.00341 36.455 5C38.8215 5.00341 41.1448 5.63406 43.1882 6.8277C45.2316 8.02134 46.9221 9.73532 48.0875 11.795ZM39.8997 14H39.8547C39.5631 14.0012 39.2838 14.1179 39.078 14.3245C38.8723 14.5311 38.7567 14.8109 38.7567 15.1025V18.5H34.2455V15.1025C34.2455 14.8101 34.1293 14.5297 33.9226 14.3229C33.7158 14.1162 33.4354 14 33.143 14H33.098C32.8064 14.0012 32.5271 14.1179 32.3213 14.3245C32.1155 14.5311 32 14.8109 32 15.1025V24.1475C32 24.755 32.495 25.25 33.1002 25.25H33.1452C33.4372 25.2494 33.7171 25.133 33.9234 24.9263C34.1296 24.7196 34.2455 24.4395 34.2455 24.1475V20.7725H38.7567V24.1475C38.7567 24.755 39.2495 25.25 39.8547 25.25H39.8997C40.1917 25.2494 40.4716 25.133 40.6779 24.9263C40.8841 24.7196 41 24.4395 41 24.1475V15.1025C41 14.8105 40.8841 14.5304 40.6779 14.3237C40.4716 14.117 40.1917 14.0006 39.8997 14ZM49.9775 68H23V67.145C23 66.38 23.63 65.75 24.3972 65.75H25.25V64.7735C25.25 64.0692 25.8125 63.5 26.51 63.5H46.49C47.1875 63.5 47.75 64.0692 47.75 64.7735V65.75H48.6027C49.3677 65.75 50 66.38 50 67.145V68H49.9775ZM46.535 46.31C46.526 46.298 46.5222 46.283 46.5237 46.265C46.5252 46.247 46.5215 46.232 46.5125 46.22C45.4849 44.4854 44.0233 43.0484 42.2717 42.0502C40.52 41.0521 38.5386 40.5273 36.5225 40.5275C34.5064 40.5273 32.525 41.0521 30.7733 42.0502C29.0216 43.0484 27.5601 44.4854 26.5325 46.22V46.2402C26.531 46.2448 26.5235 46.253 26.51 46.265C26.4425 46.4 26.375 46.5575 26.375 46.7375C26.375 47.3 26.8295 47.75 27.3965 47.75H45.6035C45.7372 47.7512 45.8698 47.7259 45.9937 47.6755C46.1176 47.6252 46.2303 47.5508 46.3252 47.4566C46.4202 47.3625 46.4956 47.2505 46.5471 47.1271C46.5985 47.0036 46.625 46.8712 46.625 46.7375C46.6305 46.5898 46.5996 46.4429 46.535 46.31Z" fill="#F8312F"/>
</g>
</g>
</svg>
